<?xml version="1.0" encoding="utf-8"?>
<svg xmlns="http://www.w3.org/2000/svg" xmlns:xlink="http://www.w3.org/1999/xlink" style="margin: auto; background: none; display: block; z-index: 1; position: relative; shape-rendering: auto;" width="3000" height="746" preserveAspectRatio="xMidYMid" viewBox="0 0 3000 746">
<g transform="translate(1500,373) scale(1,1) translate(-1500,-373)"><defs>
  <linearGradient id="ldbk-photon-5c3pwtgx649-lg" x1="0" x2="1525" y1="0" y2="0" gradientUnits="userSpaceOnUse">
    <stop stop-color="#5c63ed" offset="0"></stop>
    <stop stop-color="#34ffef" offset="1"></stop>
  </linearGradient>
  <mask id="ldbk-photon-5c3pwtgx649-mask">
  <g><path d="M-300 -0.5 L1537.7213509045082 -0.5 A15 15 0 0 1 1537.7213509045082 30.5 L-300 30.5" fill="#fff">
  <animateTransform attributeName="transform" type="translate" dur="10s" repeatCount="indefinite" keyTimes="0;0.5;1" calcMode="spline" keySplines="0.5 0 0.5 1;0.5 0 0.5 1" values="0;39.22466709260085;0" begin="0s"></animateTransform>
</path><path d="M1475.1769679415006 -0.5 L1507.7213509045082 -0.5 A15 15 0 0 1 1507.7213509045082 30.5 L1475.1769679415006 30.5 A15 15 0 0 1 1475.1769679415006 -0.5" fill="#fff">
  <animateTransform attributeName="transform" type="translate" dur="10s" repeatCount="indefinite" keyTimes="0;1" values="0;2950.0913866663996" begin="0s"></animateTransform>
  <animate attributeName="opacity" dur="10s" repeatCount="indefinite" keyTimes="0;0.3;1" values="1;1;0" begin="0s"></animate>
</path><path d="M-300 29.5 L1515.6234498259178 29.5 A15 15 0 0 0 1515.6234498259178 60.5 L-300 60.5" fill="#fff">
  <animateTransform attributeName="transform" type="translate" dur="10s" repeatCount="indefinite" keyTimes="0;0.5;1" calcMode="spline" keySplines="0.5 0 0.5 1;0.5 0 0.5 1" values="0;-42.05045841572145;0" begin="-1.2s"></animateTransform>
</path><path d="M-54.38448140566855 29.5 L-29.999999999999996 29.5 A15 15 0 0 1 -29.999999999999996 60.5 L-54.38448140566855 60.5 A15 15 0 0 1 -54.38448140566855 29.5" fill="#000">
  <animateTransform attributeName="transform" type="translate" dur="5s" repeatCount="indefinite" keyTimes="0;1" values="0;0" begin="-1.2s"></animateTransform>
  <animate attributeName="opacity" dur="5s" repeatCount="indefinite" keyTimes="0;0.3;1" values="1;1;0" begin="-1.2s"></animate>
</path><path d="M-300 59.5 L1572.2613130088587 59.5 A15 15 0 0 1 1572.2613130088587 90.5 L-300 90.5" fill="#fff">
  <animateTransform attributeName="transform" type="translate" dur="10s" repeatCount="indefinite" keyTimes="0;0.5;1" calcMode="spline" keySplines="0.5 0 0.5 1;0.5 0 0.5 1" values="0;46.473159276755226;0" begin="-2.4s"></animateTransform>
</path><path d="M1531.5854617255864 59.5 L1542.2613130088587 59.5 A15 15 0 0 1 1542.2613130088587 90.5 L1531.5854617255864 90.5 A15 15 0 0 1 1531.5854617255864 59.5" fill="#fff">
  <animateTransform attributeName="transform" type="translate" dur="3.3333333333333335s" repeatCount="indefinite" keyTimes="0;1" values="0;2780.946404155961" begin="-2.4s"></animateTransform>
  <animate attributeName="opacity" dur="3.3333333333333335s" repeatCount="indefinite" keyTimes="0;0.3;1" values="1;1;0" begin="-2.4s"></animate>
</path><path d="M-300 89.5 L1514.5760380965194 89.5 A15 15 0 0 0 1514.5760380965194 120.5 L-300 120.5" fill="#fff">
  <animateTransform attributeName="transform" type="translate" dur="5s" repeatCount="indefinite" keyTimes="0;0.5;1" calcMode="spline" keySplines="0.5 0 0.5 1;0.5 0 0.5 1" values="0;-47.06508941253342;0" begin="-3.5999999999999996s"></animateTransform>
</path><path d="M-55.953578673197335 89.5 L-30 89.5 A15 15 0 0 1 -30 120.5 L-55.953578673197335 120.5 A15 15 0 0 1 -55.953578673197335 89.5" fill="#000">
  <animateTransform attributeName="transform" type="translate" dur="5s" repeatCount="indefinite" keyTimes="0;1" values="0;0" begin="-3.5999999999999996s"></animateTransform>
  <animate attributeName="opacity" dur="5s" repeatCount="indefinite" keyTimes="0;0.3;1" values="1;1;0" begin="-3.5999999999999996s"></animate>
</path><path d="M-300 119.5 L1560.8213077675111 119.5 A15 15 0 0 1 1560.8213077675111 150.5 L-300 150.5" fill="#fff">
  <animateTransform attributeName="transform" type="translate" dur="3.3333333333333335s" repeatCount="indefinite" keyTimes="0;0.5;1" calcMode="spline" keySplines="0.5 0 0.5 1;0.5 0 0.5 1" values="0;27.815873500120503;0" begin="-4.8s"></animateTransform>
</path><path d="M1500.5978008871261 119.5 L1530.8213077675111 119.5 A15 15 0 0 1 1530.8213077675111 150.5 L1500.5978008871261 150.5 A15 15 0 0 1 1500.5978008871261 119.5" fill="#fff">
  <animateTransform attributeName="transform" type="translate" dur="5s" repeatCount="indefinite" keyTimes="0;1" values="0;3349.5119347053705" begin="-4.8s"></animateTransform>
  <animate attributeName="opacity" dur="5s" repeatCount="indefinite" keyTimes="0;0.3;1" values="1;1;0" begin="-4.8s"></animate>
</path><path d="M-300 149.5 L1537.6530077115947 149.5 A15 15 0 0 0 1537.6530077115947 180.5 L-300 180.5" fill="#fff">
  <animateTransform attributeName="transform" type="translate" dur="3.3333333333333335s" repeatCount="indefinite" keyTimes="0;0.5;1" calcMode="spline" keySplines="0.5 0 0.5 1;0.5 0 0.5 1" values="0;-31.40502884647704;0" begin="-6.000000000000001s"></animateTransform>
</path><path d="M-69.49917108345103 149.5 L-30 149.5 A15 15 0 0 1 -30 180.5 L-69.49917108345103 180.5 A15 15 0 0 1 -69.49917108345103 149.5" fill="#000">
  <animateTransform attributeName="transform" type="translate" dur="3.3333333333333335s" repeatCount="indefinite" keyTimes="0;1" values="0;0" begin="-6.000000000000001s"></animateTransform>
  <animate attributeName="opacity" dur="3.3333333333333335s" repeatCount="indefinite" keyTimes="0;0.3;1" values="1;1;0" begin="-6.000000000000001s"></animate>
</path><path d="M-300 179.5 L1602.39920727611 179.5 A15 15 0 0 1 1602.39920727611 210.5 L-300 210.5" fill="#fff">
  <animateTransform attributeName="transform" type="translate" dur="3.3333333333333335s" repeatCount="indefinite" keyTimes="0;0.5;1" calcMode="spline" keySplines="0.5 0 0.5 1;0.5 0 0.5 1" values="0;27.581329028655873;0" begin="-7.199999999999999s"></animateTransform>
</path><path d="M1559.6706240977326 179.5 L1572.39920727611 179.5 A15 15 0 0 1 1572.39920727611 210.5 L1559.6706240977326 210.5 A15 15 0 0 1 1559.6706240977326 179.5" fill="#fff">
  <animateTransform attributeName="transform" type="translate" dur="5s" repeatCount="indefinite" keyTimes="0;1" values="0;3277.0491464933666" begin="-7.199999999999999s"></animateTransform>
  <animate attributeName="opacity" dur="5s" repeatCount="indefinite" keyTimes="0;0.3;1" values="1;1;0" begin="-7.199999999999999s"></animate>
</path><path d="M-300 209.5 L1521.4967380345304 209.5 A15 15 0 0 0 1521.4967380345304 240.5 L-300 240.5" fill="#fff">
  <animateTransform attributeName="transform" type="translate" dur="3.3333333333333335s" repeatCount="indefinite" keyTimes="0;0.5;1" calcMode="spline" keySplines="0.5 0 0.5 1;0.5 0 0.5 1" values="0;-44.03669894761778;0" begin="-8.4s"></animateTransform>
</path><path d="M-68.25188616934838 209.5 L-30.000000000000007 209.5 A15 15 0 0 1 -30.000000000000007 240.5 L-68.25188616934838 240.5 A15 15 0 0 1 -68.25188616934838 209.5" fill="#000">
  <animateTransform attributeName="transform" type="translate" dur="3.3333333333333335s" repeatCount="indefinite" keyTimes="0;1" values="0;0" begin="-8.4s"></animateTransform>
  <animate attributeName="opacity" dur="3.3333333333333335s" repeatCount="indefinite" keyTimes="0;0.3;1" values="1;1;0" begin="-8.4s"></animate>
</path><path d="M-300 239.5 L1564.0836393919021 239.5 A15 15 0 0 1 1564.0836393919021 270.5 L-300 270.5" fill="#fff">
  <animateTransform attributeName="transform" type="translate" dur="5s" repeatCount="indefinite" keyTimes="0;0.5;1" calcMode="spline" keySplines="0.5 0 0.5 1;0.5 0 0.5 1" values="0;32.52462769777661;0" begin="-9.6s"></animateTransform>
</path><path d="M1521.6353480645291 239.5 L1534.0836393919021 239.5 A15 15 0 0 1 1534.0836393919021 270.5 L1521.6353480645291 270.5 A15 15 0 0 1 1521.6353480645291 239.5" fill="#fff">
  <animateTransform attributeName="transform" type="translate" dur="3.3333333333333335s" repeatCount="indefinite" keyTimes="0;1" values="0;2623.50330164617" begin="-9.6s"></animateTransform>
  <animate attributeName="opacity" dur="3.3333333333333335s" repeatCount="indefinite" keyTimes="0;0.3;1" values="1;1;0" begin="-9.6s"></animate>
</path><path d="M-300 269.5 L1523.2002657638454 269.5 A15 15 0 0 0 1523.2002657638454 300.5 L-300 300.5" fill="#fff">
  <animateTransform attributeName="transform" type="translate" dur="3.3333333333333335s" repeatCount="indefinite" keyTimes="0;0.5;1" calcMode="spline" keySplines="0.5 0 0.5 1;0.5 0 0.5 1" values="0;-44.480422731204285;0" begin="-10.8s"></animateTransform>
</path><path d="M-64.53777400513903 269.5 L-30 269.5 A15 15 0 0 1 -30 300.5 L-64.53777400513903 300.5 A15 15 0 0 1 -64.53777400513903 269.5" fill="#000">
  <animateTransform attributeName="transform" type="translate" dur="5s" repeatCount="indefinite" keyTimes="0;1" values="0;0" begin="-10.8s"></animateTransform>
  <animate attributeName="opacity" dur="5s" repeatCount="indefinite" keyTimes="0;0.3;1" values="1;1;0" begin="-10.8s"></animate>
</path><path d="M-300 299.5 L1576.8983817629457 299.5 A15 15 0 0 1 1576.8983817629457 330.5 L-300 330.5" fill="#fff">
  <animateTransform attributeName="transform" type="translate" dur="10s" repeatCount="indefinite" keyTimes="0;0.5;1" calcMode="spline" keySplines="0.5 0 0.5 1;0.5 0 0.5 1" values="0;27.65801714791921;0" begin="-12.000000000000002s"></animateTransform>
</path><path d="M1521.0629741276637 299.5 L1546.8983817629457 299.5 A15 15 0 0 1 1546.8983817629457 330.5 L1521.0629741276637 330.5 A15 15 0 0 1 1521.0629741276637 299.5" fill="#fff">
  <animateTransform attributeName="transform" type="translate" dur="3.3333333333333335s" repeatCount="indefinite" keyTimes="0;1" values="0;3506.9554813094783" begin="-12.000000000000002s"></animateTransform>
  <animate attributeName="opacity" dur="3.3333333333333335s" repeatCount="indefinite" keyTimes="0;0.3;1" values="1;1;0" begin="-12.000000000000002s"></animate>
</path><path d="M-300 329.5 L1518.5148759681124 329.5 A15 15 0 0 0 1518.5148759681124 360.5 L-300 360.5" fill="#fff">
  <animateTransform attributeName="transform" type="translate" dur="3.3333333333333335s" repeatCount="indefinite" keyTimes="0;0.5;1" calcMode="spline" keySplines="0.5 0 0.5 1;0.5 0 0.5 1" values="0;-27.01934661849815;0" begin="-13.200000000000001s"></animateTransform>
</path><path d="M-66.0811509516804 329.5 L-29.999999999999993 329.5 A15 15 0 0 1 -29.999999999999993 360.5 L-66.0811509516804 360.5 A15 15 0 0 1 -66.0811509516804 329.5" fill="#000">
  <animateTransform attributeName="transform" type="translate" dur="5s" repeatCount="indefinite" keyTimes="0;1" values="0;0" begin="-13.200000000000001s"></animateTransform>
  <animate attributeName="opacity" dur="5s" repeatCount="indefinite" keyTimes="0;0.3;1" values="1;1;0" begin="-13.200000000000001s"></animate>
</path><path d="M-300 359.5 L1533.6264859429773 359.5 A15 15 0 0 1 1533.6264859429773 390.5 L-300 390.5" fill="#fff">
  <animateTransform attributeName="transform" type="translate" dur="3.3333333333333335s" repeatCount="indefinite" keyTimes="0;0.5;1" calcMode="spline" keySplines="0.5 0 0.5 1;0.5 0 0.5 1" values="0;46.1671612625842;0" begin="-14.399999999999999s"></animateTransform>
</path><path d="M1487.7377383220562 359.5 L1503.6264859429773 359.5 A15 15 0 0 1 1503.6264859429773 390.5 L1487.7377383220562 390.5 A15 15 0 0 1 1487.7377383220562 359.5" fill="#fff">
  <animateTransform attributeName="transform" type="translate" dur="10s" repeatCount="indefinite" keyTimes="0;1" values="0;2623.631957614988" begin="-14.399999999999999s"></animateTransform>
  <animate attributeName="opacity" dur="10s" repeatCount="indefinite" keyTimes="0;0.3;1" values="1;1;0" begin="-14.399999999999999s"></animate>
</path><path d="M-300 389.5 L1521.3764745325157 389.5 A15 15 0 0 0 1521.3764745325157 420.5 L-300 420.5" fill="#fff">
  <animateTransform attributeName="transform" type="translate" dur="3.3333333333333335s" repeatCount="indefinite" keyTimes="0;0.5;1" calcMode="spline" keySplines="0.5 0 0.5 1;0.5 0 0.5 1" values="0;-46.30107392274143;0" begin="-15.600000000000001s"></animateTransform>
</path><path d="M-69.7053305622004 389.5 L-30 389.5 A15 15 0 0 1 -30 420.5 L-69.7053305622004 420.5 A15 15 0 0 1 -69.7053305622004 389.5" fill="#000">
  <animateTransform attributeName="transform" type="translate" dur="5s" repeatCount="indefinite" keyTimes="0;1" values="0;0" begin="-15.600000000000001s"></animateTransform>
  <animate attributeName="opacity" dur="5s" repeatCount="indefinite" keyTimes="0;0.3;1" values="1;1;0" begin="-15.600000000000001s"></animate>
</path><path d="M-300 419.5 L1547.4991443301287 419.5 A15 15 0 0 1 1547.4991443301287 450.5 L-300 450.5" fill="#fff">
  <animateTransform attributeName="transform" type="translate" dur="5s" repeatCount="indefinite" keyTimes="0;0.5;1" calcMode="spline" keySplines="0.5 0 0.5 1;0.5 0 0.5 1" values="0;49.06924219964183;0" begin="-16.8s"></animateTransform>
</path><path d="M1504.0697785710427 419.5 L1517.4991443301287 419.5 A15 15 0 0 1 1517.4991443301287 450.5 L1504.0697785710427 450.5 A15 15 0 0 1 1504.0697785710427 419.5" fill="#fff">
  <animateTransform attributeName="transform" type="translate" dur="10s" repeatCount="indefinite" keyTimes="0;1" values="0;2258.5037632594263" begin="-16.8s"></animateTransform>
  <animate attributeName="opacity" dur="10s" repeatCount="indefinite" keyTimes="0;0.3;1" values="1;1;0" begin="-16.8s"></animate>
</path><path d="M-300 449.5 L1497.5591901401708 449.5 A15 15 0 0 0 1497.5591901401708 480.5 L-300 480.5" fill="#fff">
  <animateTransform attributeName="transform" type="translate" dur="3.3333333333333335s" repeatCount="indefinite" keyTimes="0;0.5;1" calcMode="spline" keySplines="0.5 0 0.5 1;0.5 0 0.5 1" values="0;-49.441364477666;0" begin="-18s"></animateTransform>
</path><path d="M-67.91205419165054 449.5 L-30 449.5 A15 15 0 0 1 -30 480.5 L-67.91205419165054 480.5 A15 15 0 0 1 -67.91205419165054 449.5" fill="#000">
  <animateTransform attributeName="transform" type="translate" dur="5s" repeatCount="indefinite" keyTimes="0;1" values="0;0" begin="-18s"></animateTransform>
  <animate attributeName="opacity" dur="5s" repeatCount="indefinite" keyTimes="0;0.3;1" values="1;1;0" begin="-18s"></animate>
</path><path d="M-300 479.5 L1510.5858804822715 479.5 A15 15 0 0 1 1510.5858804822715 510.5 L-300 510.5" fill="#fff">
  <animateTransform attributeName="transform" type="translate" dur="10s" repeatCount="indefinite" keyTimes="0;0.5;1" calcMode="spline" keySplines="0.5 0 0.5 1;0.5 0 0.5 1" values="0;32.21226001681532;0" begin="-19.2s"></animateTransform>
</path><path d="M1454.245039226716 479.5 L1480.5858804822715 479.5 A15 15 0 0 1 1480.5858804822715 510.5 L1454.245039226716 510.5 A15 15 0 0 1 1454.245039226716 479.5" fill="#fff">
  <animateTransform attributeName="transform" type="translate" dur="5s" repeatCount="indefinite" keyTimes="0;1" values="0;3073.701113959492" begin="-19.2s"></animateTransform>
  <animate attributeName="opacity" dur="5s" repeatCount="indefinite" keyTimes="0;0.3;1" values="1;1;0" begin="-19.2s"></animate>
</path><path d="M-300 509.5 L1461.163763032105 509.5 A15 15 0 0 0 1461.163763032105 540.5 L-300 540.5" fill="#fff">
  <animateTransform attributeName="transform" type="translate" dur="5s" repeatCount="indefinite" keyTimes="0;0.5;1" calcMode="spline" keySplines="0.5 0 0.5 1;0.5 0 0.5 1" values="0;-29.547819354313447;0" begin="-20.4s"></animateTransform>
</path><path d="M-68.50972110033958 509.5 L-30 509.5 A15 15 0 0 1 -30 540.5 L-68.50972110033958 540.5 A15 15 0 0 1 -68.50972110033958 509.5" fill="#000">
  <animateTransform attributeName="transform" type="translate" dur="10s" repeatCount="indefinite" keyTimes="0;1" values="0;0" begin="-20.4s"></animateTransform>
  <animate attributeName="opacity" dur="10s" repeatCount="indefinite" keyTimes="0;0.3;1" values="1;1;0" begin="-20.4s"></animate>
</path><path d="M-300 539.5 L1510.6332834709435 539.5 A15 15 0 0 1 1510.6332834709435 570.5 L-300 570.5" fill="#fff">
  <animateTransform attributeName="transform" type="translate" dur="5s" repeatCount="indefinite" keyTimes="0;0.5;1" calcMode="spline" keySplines="0.5 0 0.5 1;0.5 0 0.5 1" values="0;32.01781738654841;0" begin="-21.6s"></animateTransform>
</path><path d="M1449.5189223192724 539.5 L1480.6332834709435 539.5 A15 15 0 0 1 1480.6332834709435 570.5 L1449.5189223192724 570.5 A15 15 0 0 1 1449.5189223192724 539.5" fill="#fff">
  <animateTransform attributeName="transform" type="translate" dur="3.3333333333333335s" repeatCount="indefinite" keyTimes="0;1" values="0;2431.8638176509926" begin="-21.6s"></animateTransform>
  <animate attributeName="opacity" dur="3.3333333333333335s" repeatCount="indefinite" keyTimes="0;0.3;1" values="1;1;0" begin="-21.6s"></animate>
</path><path d="M-300 569.5 L1496.939108079185 569.5 A15 15 0 0 0 1496.939108079185 600.5 L-300 600.5" fill="#fff">
  <animateTransform attributeName="transform" type="translate" dur="10s" repeatCount="indefinite" keyTimes="0;0.5;1" calcMode="spline" keySplines="0.5 0 0.5 1;0.5 0 0.5 1" values="0;-31.40907224460781;0" begin="-22.800000000000004s"></animateTransform>
</path><path d="M-58.448910897247345 569.5 L-30 569.5 A15 15 0 0 1 -30 600.5 L-58.448910897247345 600.5 A15 15 0 0 1 -58.448910897247345 569.5" fill="#000">
  <animateTransform attributeName="transform" type="translate" dur="10s" repeatCount="indefinite" keyTimes="0;1" values="0;0" begin="-22.800000000000004s"></animateTransform>
  <animate attributeName="opacity" dur="10s" repeatCount="indefinite" keyTimes="0;0.3;1" values="1;1;0" begin="-22.800000000000004s"></animate>
</path><path d="M-300 599.5 L1527.170038006745 599.5 A15 15 0 0 1 1527.170038006745 630.5 L-300 630.5" fill="#fff">
  <animateTransform attributeName="transform" type="translate" dur="5s" repeatCount="indefinite" keyTimes="0;0.5;1" calcMode="spline" keySplines="0.5 0 0.5 1;0.5 0 0.5 1" values="0;37.303031690252055;0" begin="-24.000000000000004s"></animateTransform>
</path><path d="M1476.6162506021667 599.5 L1497.170038006745 599.5 A15 15 0 0 1 1497.170038006745 630.5 L1476.6162506021667 630.5 A15 15 0 0 1 1476.6162506021667 599.5" fill="#fff">
  <animateTransform attributeName="transform" type="translate" dur="10s" repeatCount="indefinite" keyTimes="0;1" values="0;3115.1212000761884" begin="-24.000000000000004s"></animateTransform>
  <animate attributeName="opacity" dur="10s" repeatCount="indefinite" keyTimes="0;0.3;1" values="1;1;0" begin="-24.000000000000004s"></animate>
</path><path d="M-300 629.5 L1463.0957968886719 629.5 A15 15 0 0 0 1463.0957968886719 660.5 L-300 660.5" fill="#fff">
  <animateTransform attributeName="transform" type="translate" dur="3.3333333333333335s" repeatCount="indefinite" keyTimes="0;0.5;1" calcMode="spline" keySplines="0.5 0 0.5 1;0.5 0 0.5 1" values="0;-44.774113146045686;0" begin="-25.2s"></animateTransform>
</path><path d="M-68.85396296315889 629.5 L-29.999999999999993 629.5 A15 15 0 0 1 -29.999999999999993 660.5 L-68.85396296315889 660.5 A15 15 0 0 1 -68.85396296315889 629.5" fill="#000">
  <animateTransform attributeName="transform" type="translate" dur="3.3333333333333335s" repeatCount="indefinite" keyTimes="0;1" values="0;0" begin="-25.2s"></animateTransform>
  <animate attributeName="opacity" dur="3.3333333333333335s" repeatCount="indefinite" keyTimes="0;0.3;1" values="1;1;0" begin="-25.2s"></animate>
</path><path d="M-300 659.5 L1517.4781527304067 659.5 A15 15 0 0 1 1517.4781527304067 690.5 L-300 690.5" fill="#fff">
  <animateTransform attributeName="transform" type="translate" dur="3.3333333333333335s" repeatCount="indefinite" keyTimes="0;0.5;1" calcMode="spline" keySplines="0.5 0 0.5 1;0.5 0 0.5 1" values="0;44.03571945200217;0" begin="-26.400000000000002s"></animateTransform>
</path><path d="M1475.9900727350148 659.5 L1487.4781527304067 659.5 A15 15 0 0 1 1487.4781527304067 690.5 L1475.9900727350148 690.5 A15 15 0 0 1 1475.9900727350148 659.5" fill="#fff">
  <animateTransform attributeName="transform" type="translate" dur="5s" repeatCount="indefinite" keyTimes="0;1" values="0;3459.4957882171047" begin="-26.400000000000002s"></animateTransform>
  <animate attributeName="opacity" dur="5s" repeatCount="indefinite" keyTimes="0;0.3;1" values="1;1;0" begin="-26.400000000000002s"></animate>
</path><path d="M-300 689.5 L1489.6586415368497 689.5 A15 15 0 0 0 1489.6586415368497 720.5 L-300 720.5" fill="#fff">
  <animateTransform attributeName="transform" type="translate" dur="3.3333333333333335s" repeatCount="indefinite" keyTimes="0;0.5;1" calcMode="spline" keySplines="0.5 0 0.5 1;0.5 0 0.5 1" values="0;-31.255461295443236;0" begin="-27.6s"></animateTransform>
</path><path d="M-64.77956705163575 689.5 L-30 689.5 A15 15 0 0 1 -30 720.5 L-64.77956705163575 720.5 A15 15 0 0 1 -64.77956705163575 689.5" fill="#000">
  <animateTransform attributeName="transform" type="translate" dur="3.3333333333333335s" repeatCount="indefinite" keyTimes="0;1" values="0;0" begin="-27.6s"></animateTransform>
  <animate attributeName="opacity" dur="3.3333333333333335s" repeatCount="indefinite" keyTimes="0;0.3;1" values="1;1;0" begin="-27.6s"></animate>
</path><path d="M-300 719.5 L1550.0114456255478 719.5 A15 15 0 0 1 1550.0114456255478 750.5 L-300 750.5" fill="#fff">
  <animateTransform attributeName="transform" type="translate" dur="10s" repeatCount="indefinite" keyTimes="0;0.5;1" calcMode="spline" keySplines="0.5 0 0.5 1;0.5 0 0.5 1" values="0;46.42915790324305;0" begin="-28.799999999999997s"></animateTransform>
</path><path d="M1494.2442655635766 719.5 L1520.0114456255478 719.5 A15 15 0 0 1 1520.0114456255478 750.5 L1494.2442655635766 750.5 A15 15 0 0 1 1494.2442655635766 719.5" fill="#fff">
  <animateTransform attributeName="transform" type="translate" dur="10s" repeatCount="indefinite" keyTimes="0;1" values="0;3143.437114916189" begin="-28.799999999999997s"></animateTransform>
  <animate attributeName="opacity" dur="10s" repeatCount="indefinite" keyTimes="0;0.3;1" values="1;1;0" begin="-28.799999999999997s"></animate>
</path>    </g>
  </mask>
</defs>
<rect x="0" y="0" width="3000" height="746" fill="url(#ldbk-photon-5c3pwtgx649-lg)" mask="url(#ldbk-photon-5c3pwtgx649-mask)"></rect></g>
</svg>